<svg width="18" height="18" viewBox="0 0 18 18" fill="none" xmlns="http://www.w3.org/2000/svg">
<path fill-rule="evenodd" clip-rule="evenodd" d="M4.32378 1.24403e-06H9.67622C9.9337 -1.72334e-05 10.1702 -3.41609e-05 10.3679 0.0161174C10.581 0.0335311 10.8142 0.0733937 11.0445 0.190741C11.3738 0.35852 11.6415 0.626236 11.8093 0.955519C11.9266 1.18583 11.9665 1.419 11.9839 1.63213C12 1.82981 12 2.06629 12 2.32377L12 6L13.6762 6C13.9337 5.99998 14.1702 5.99997 14.3679 6.01612C14.581 6.03353 14.8142 6.07339 15.0445 6.19074C15.3738 6.35852 15.6415 6.62624 15.8093 6.95552C15.9266 7.18583 15.9665 7.419 15.9839 7.63213C16 7.82981 16 8.06629 16 8.32377L16 16.5H17.25C17.6642 16.5 18 16.8358 18 17.25C18 17.6642 17.6642 18 17.25 18H0.75C0.335786 18 0 17.6642 0 17.25C0 16.8358 0.335786 16.5 0.75 16.5H2V2.35C2 2.34124 2 2.3325 2 2.32379C1.99998 2.0663 1.99996 1.82982 2.01612 1.63213C2.03353 1.419 2.07339 1.18583 2.19074 0.955519C2.35852 0.626235 2.62623 0.358519 2.95552 0.190741C3.18582 0.0733939 3.419 0.0335311 3.63213 0.0161174C3.82981 -3.41609e-05 4.0663 -1.72334e-05 4.32378 1.24403e-06ZM3.5 16.5H10.5V2.35C10.5 2.0576 10.4994 1.88341 10.4889 1.75428C10.4824 1.67547 10.4739 1.64234 10.4712 1.63346C10.4477 1.58882 10.4112 1.55235 10.3665 1.52883C10.3577 1.52607 10.3245 1.51757 10.2457 1.51114C10.1166 1.50059 9.9424 1.5 9.65 1.5H4.35C4.0576 1.5 3.8834 1.50059 3.75428 1.51114C3.67547 1.51757 3.64234 1.52607 3.63346 1.52883C3.58882 1.55235 3.55234 1.58883 3.52882 1.63346C3.52607 1.64234 3.51757 1.67547 3.51113 1.75428C3.50058 1.88341 3.5 2.0576 3.5 2.35V16.5ZM3.52973 1.63088C3.52974 1.63091 3.52956 1.63144 3.52917 1.63239L3.52973 1.63088ZM3.63087 1.52973C3.63085 1.52972 3.63132 1.52952 3.63239 1.52917L3.63087 1.52973ZM10.3691 1.52973C10.3691 1.52974 10.3686 1.52957 10.3676 1.52918L10.3691 1.52973ZM10.4703 1.63088C10.4703 1.63085 10.4705 1.63132 10.4708 1.63236L10.4703 1.63088ZM12 7.5V16.5H14.5V8.35C14.5 8.0576 14.4994 7.88341 14.4889 7.75428C14.4824 7.67547 14.4739 7.64235 14.4712 7.63347C14.4477 7.58883 14.4112 7.55235 14.3665 7.52883C14.3577 7.52607 14.3245 7.51757 14.2457 7.51114C14.1166 7.50059 13.9424 7.5 13.65 7.5H12ZM14.3691 7.52973C14.3691 7.52974 14.3686 7.52957 14.3676 7.52917L14.3691 7.52973ZM14.4703 7.63088C14.4703 7.63083 14.4705 7.63131 14.4708 7.6324L14.4703 7.63088ZM5 4.75C5 4.33579 5.33579 4 5.75 4H8.25C8.66421 4 9 4.33579 9 4.75C9 5.16422 8.66421 5.5 8.25 5.5H5.75C5.33579 5.5 5 5.16422 5 4.75ZM5 9C5 8.58579 5.33579 8.25 5.75 8.25H8.25C8.66421 8.25 9 8.58579 9 9C9 9.41422 8.66421 9.75 8.25 9.75H5.75C5.33579 9.75 5 9.41422 5 9ZM5 13.25C5 12.8358 5.33579 12.5 5.75 12.5H8.25C8.66421 12.5 9 12.8358 9 13.25C9 13.6642 8.66421 14 8.25 14H5.75C5.33579 14 5 13.6642 5 13.25Z" fill="white"/>
</svg>
