<svg width="24" height="24" viewBox="0 0 24 24" fill="none" xmlns="http://www.w3.org/2000/svg">
<g id="Iconly/Regular/Light/Filter">
<g id="Filter">
<path id="Stroke 1" d="M10.3301 16.593H4.02942" stroke="black" stroke-width="1.5" stroke-linecap="round" stroke-linejoin="round"/>
<path id="Stroke 3" d="M13.1405 6.90048H19.4412" stroke="black" stroke-width="1.5" stroke-linecap="round" stroke-linejoin="round"/>
<path id="Stroke 5" fill-rule="evenodd" clip-rule="evenodd" d="M8.72629 6.84638C8.72629 5.55072 7.66813 4.50012 6.36314 4.50012C5.05816 4.50012 4 5.55072 4 6.84638C4 8.14203 5.05816 9.19263 6.36314 9.19263C7.66813 9.19263 8.72629 8.14203 8.72629 6.84638Z" stroke="black" stroke-width="1.5" stroke-linecap="round" stroke-linejoin="round"/>
<path id="Stroke 7" fill-rule="evenodd" clip-rule="evenodd" d="M20 16.5539C20 15.2582 18.9426 14.2076 17.6376 14.2076C16.3318 14.2076 15.2737 15.2582 15.2737 16.5539C15.2737 17.8496 16.3318 18.9001 17.6376 18.9001C18.9426 18.9001 20 17.8496 20 16.5539Z" stroke="black" stroke-width="1.5" stroke-linecap="round" stroke-linejoin="round"/>
</g>
</g>
</svg>
