<svg width="24" height="24" viewBox="0 0 24 24" fill="none" xmlns="http://www.w3.org/2000/svg">
<path fill-rule="evenodd" clip-rule="evenodd" d="M3.5 10.3179C3.5 5.71801 7.34388 2.00012 11.9934 2.00012C16.6561 2.00012 20.5 5.71801 20.5 10.3179C20.5 12.6358 19.657 14.7878 18.2695 16.6117C16.7388 18.6236 14.8522 20.3766 12.7285 21.7525C12.2425 22.0705 11.8039 22.0945 11.2704 21.7525C9.13474 20.3766 7.24809 18.6236 5.7305 16.6117C4.34198 14.7878 3.5 12.6358 3.5 10.3179ZM9.19423 10.5769C9.19423 12.1178 10.4517 13.3298 11.9934 13.3298C13.5362 13.3298 14.8058 12.1178 14.8058 10.5769C14.8058 9.04792 13.5362 7.77695 11.9934 7.77695C10.4517 7.77695 9.19423 9.04792 9.19423 10.5769Z" fill="grey"/>
</svg>
