<svg width="20" height="20" viewBox="0 0 20 20" fill="none" xmlns="http://www.w3.org/2000/svg">
<path d="M2.75 6.5444C2.75 6.19079 2.75 6.01398 2.80076 5.85639C2.84567 5.71698 2.91907 5.58908 3.01603 5.48129C3.12563 5.35944 3.27611 5.27402 3.57708 5.1032L8.45415 2.33503C9.01855 2.01468 9.30075 1.85451 9.5994 1.7917C9.86373 1.7361 10.1363 1.7361 10.4006 1.7917C10.6993 1.85451 10.9815 2.01468 11.5458 2.33503L16.4229 5.1032C16.7239 5.27402 16.8744 5.35944 16.984 5.48129C17.0809 5.58908 17.1543 5.71698 17.1992 5.85639C17.25 6.01398 17.25 6.19079 17.25 6.5444V9.68765C17.25 12.2464 15.9647 14.6234 13.8514 15.9728L10.8438 17.8933C10.5376 18.0888 10.3844 18.1866 10.2204 18.2247C10.0753 18.2584 9.92471 18.2584 9.77963 18.2247C9.61555 18.1866 9.46244 18.0888 9.15622 17.8933L6.14856 15.9728C4.03534 14.6234 2.75 12.2464 2.75 9.68765V6.5444Z" stroke="black" stroke-width="1.5" stroke-linejoin="round"/>
</svg>
