<svg width="18" height="18" viewBox="0 0 18 18" fill="none" xmlns="http://www.w3.org/2000/svg">
<path d="M17.25 9L10.4655 12.4951C9.92879 12.7715 9.66045 12.9098 9.37826 12.9641C9.12838 13.0123 8.87162 13.0123 8.62174 12.9641C8.33955 12.9098 8.07121 12.7715 7.53454 12.4951L0.75 9M17.25 13L10.4655 16.4951C9.92879 16.7715 9.66045 16.9098 9.37826 16.9641C9.12838 17.0123 8.87162 17.0123 8.62174 16.9641C8.33955 16.9098 8.07121 16.7715 7.53454 16.4951L0.75 13M0.75 5L7.53454 1.50494C8.07121 1.22847 8.33955 1.09023 8.62174 1.03588C8.87162 0.987754 9.12838 0.987754 9.37826 1.03588C9.66045 1.09023 9.92879 1.22847 10.4655 1.50494L17.25 5L10.4655 8.49507C9.92879 8.77154 9.66045 8.90977 9.37826 8.96412C9.12838 9.01225 8.87162 9.01225 8.62174 8.96412C8.33955 8.90977 8.07121 8.77154 7.53454 8.49507L0.75 5Z" stroke="white" stroke-width="1.5" stroke-linecap="round" stroke-linejoin="round"/>
</svg>
