<svg width="20" height="20" viewBox="0 0 20 20" fill="none" xmlns="http://www.w3.org/2000/svg">
<path d="M12.75 1.75H3.75C2.64543 1.75 1.75 2.64543 1.75 3.75V4.75M1.75 4.75V16.25C1.75 17.3546 2.64543 18.25 3.75 18.25H16.25C17.3546 18.25 18.25 17.3546 18.25 16.25V6.75C18.25 5.64543 17.3546 4.75 16.25 4.75H1.75ZM15.5 11.5C15.5 12.1904 14.9404 12.75 14.25 12.75C13.5596 12.75 13 12.1904 13 11.5C13 10.8096 13.5596 10.25 14.25 10.25C14.9404 10.25 15.5 10.8096 15.5 11.5Z" stroke="black" stroke-width="1.5" stroke-linecap="round" stroke-linejoin="round"/>
</svg>
